# xmcd CD database file
#
# Track frame offsets:
#	150
#	26381
#	45563
#	59014
#	74422
#	92989
#	124500
#	151497
#	166449
#	183703
#
# Disc length: 2851 seconds
#
# Revision: 0
# Processed by: cddbd v1.5.2PL0 Copyright (c) Steve Scherf et al.
# Submitted via: CDex 1.51
#
DISCID=8a0b210a
DTITLE=Eliza Gilkyson - Roses At The End Of Time
DYEAR=2011
DGENRE=Country
TTITLE0=Blue Moon Night
TTITLE1=Death In Arkansas
TTITLE2=Looking For A Place
TTITLE3=Roses At The End Of Time
TTITLE4=Slouching Towards Bethlehem
TTITLE5=Belle Of The Ball
TTITLE6=Vayan Al Norte
TTITLE7=2153
TTITLE8=Midnight On Raton
TTITLE9=Once I Had A Home
EXTD=YEAR: 2011
EXTT0=
EXTT1=
EXTT2=
EXTT3=
EXTT4=
EXTT5=
EXTT6=
EXTT7=
EXTT8=
EXTT9=
PLAYORDER=
